<?xml version="1.0" encoding="UTF-8" standalone="no"?>
<svg
   xmlns:dc="http://purl.org/dc/elements/1.1/"
   xmlns:cc="http://creativecommons.org/ns#"
   xmlns:rdf="http://www.w3.org/1999/02/22-rdf-syntax-ns#"
   xmlns:svg="http://www.w3.org/2000/svg"
   xmlns="http://www.w3.org/2000/svg"
   id="svg8"
   version="1.1"
   viewBox="0 0 135.46667 135.46667"
   height="135.46667mm"
   width="135.46667mm">
  <defs
     id="defs2" />
  <metadata
     id="metadata5">
    <rdf:RDF>
      <cc:Work
         rdf:about="">
        <dc:format>image/svg+xml</dc:format>
        <dc:type
           rdf:resource="http://purl.org/dc/dcmitype/StillImage" />
        <dc:title></dc:title>
      </cc:Work>
    </rdf:RDF>
  </metadata>
  <g
     transform="translate(-18.861992,-27.745441)"
     id="layer1">
    <path
       style="fill:#ffffff;stroke-width:0.26458332"
       id="path6109"
       d="M 152.21199,91.245441 H 137.18101 C 135.14107,66.575691 115.49841,46.933024 90.828659,44.893087 V 29.862108 c 0,-1.169458 -0.947209,-2.116667 -2.116667,-2.116667 h -4.233333 c -1.169459,0 -2.116667,0.947209 -2.116667,2.116667 V 44.893087 C 57.692242,46.933024 38.049575,66.575691 36.009638,91.245441 H 20.978659 c -1.169459,0 -2.116667,0.947208 -2.116667,2.116667 v 4.233333 c 0,1.169458 0.947208,2.116667 2.116667,2.116667 h 15.030979 c 2.039937,24.669742 21.682604,44.312412 46.352354,46.352352 v 15.03098 c 0,1.16946 0.947208,2.11667 2.116667,2.11667 h 4.233333 c 1.169458,0 2.116667,-0.94721 2.116667,-2.11667 v -15.03098 c 24.669751,-2.03994 44.312411,-21.68261 46.352351,-46.352352 h 15.03098 c 1.16946,0 2.11667,-0.947209 2.11667,-2.116667 v -4.233333 c 0,-1.169459 -0.94721,-2.116667 -2.11667,-2.116667 z M 86.595325,137.81211 c -23.341541,0 -42.333333,-18.9918 -42.333333,-42.333336 0,-23.341541 18.991792,-42.333333 42.333333,-42.333333 23.341545,0 42.333335,18.991792 42.333335,42.333333 0,23.341536 -18.99179,42.333336 -42.333335,42.333336 z m 0,-67.733336 c -14.028208,0 -25.4,11.371792 -25.4,25.4 0,14.028206 11.371792,25.399996 25.4,25.399996 14.028205,0 25.400005,-11.37179 25.400005,-25.399996 0,-14.028208 -11.3718,-25.4 -25.400005,-25.4 z m 0,42.333326 c -9.337146,0 -16.933333,-7.59618 -16.933333,-16.933326 0,-9.337146 7.596187,-16.933333 16.933333,-16.933333 9.337146,0 16.933335,7.596187 16.933335,16.933333 0,9.337146 -7.596189,16.933326 -16.933335,16.933326 z" />
  </g>
</svg>
